<svg height="512" viewBox="0 0 41 56" width="512" xmlns="http://www.w3.org/2000/svg"><g id="037---Cook-Book"><path id="Shape" d="m14 42c0 .5522847.4477153 1 1 1h10c.5522847 0 1-.4477153 1-1v-1h-12z"/><path id="Shape" d="m27.18 22.18c-1.1552304-.3033106-2.1176729-1.1010767-2.63-2.18-.8122654-1.782795-2.5908846-2.9269588-4.55-2.9269588s-3.7377346 1.1441638-4.55 2.9269588c-.5006434 1.0980433-1.464877 1.9156255-2.63 2.23-2 .54-4 2.39-3.82 4.76.07016469 2.0583172 1.3198907 3.8920273 3.21 4.71 1.073068.4728227 1.7722895 1.5275143 1.79 2.7v4.6h2v-3c0-.5522847.4477153-1 1-1s1 .4477153 1 1v3h4v-3c0-.5522847.4477153-1 1-1s1 .4477153 1 1v3h2v-4.6c-.0019205-1.1906597.700481-2.2697682 1.79-2.75 1.8901093-.8179727 3.1398353-2.6516828 3.21-4.71.14-2.37-1.86-4.22-3.82-4.76z"/><path id="Shape" d="m36 0h-1v7c0 1.65685425-1.3431458 3-3 3s-3-1.34314575-3-3v-7h-25c-.55228475 0-1 .44771525-1 1v5.14c1.76140294.45478205 2.99409281 2.04084302 3 3.86 0 .5522847-.44771525 1-1 1s-1-.4477153-1-1c0-1.1045695-.8954305-2-2-2s-2 .8954305-2 2 .8954305 2 2 2c.55228475 0 1 .4477153 1 1v5.14c1.76140294.4547821 2.99409281 2.040843 3 3.86 0 .5522847-.44771525 1-1 1s-1-.4477153-1-1c0-1.1045695-.8954305-2-2-2s-2 .8954305-2 2 .8954305 2 2 2c.55228475 0 1 .4477153 1 1v5.14c1.76140294.4547821 2.99409281 2.040843 3 3.86 0 .5522847-.44771525 1-1 1s-1-.4477153-1-1c0-1.1045695-.8954305-2-2-2s-2 .8954305-2 2 .8954305 2 2 2c.55228475 0 1 .4477153 1 1v5.14c1.76140294.4547821 2.99409281 2.040843 3 3.86 0 .5522847-.44771525 1-1 1s-1-.4477153-1-1c0-1.1045695-.8954305-2-2-2s-2 .8954305-2 2 .8954305 2 2 2c.55228475 0 1 .4477153 1 1v6c0 .5522847.44771525 1 1 1h32c.5522847 0 1-.4477153 1-1v-54c0-.55228475-.4477153-1-1-1zm-27 6h9c.5522847 0 1 .44771525 1 1s-.4477153 1-1 1h-9c-.55228475 0-1-.44771525-1-1s.44771525-1 1-1zm0 4h4c.5522847 0 1 .4477153 1 1s-.4477153 1-1 1h-4c-.55228475 0-1-.4477153-1-1s.44771525-1 1-1zm14 43h-6c-.5522847 0-1-.4477153-1-1s.4477153-1 1-1h6c.5522847 0 1 .4477153 1 1s-.4477153 1-1 1zm4-4h-14c-.5522847 0-1-.4477153-1-1s.4477153-1 1-1h14c.5522847 0 1 .4477153 1 1s-.4477153 1-1 1zm6-21.94c-.1197627 2.8297353-1.8547772 5.338893-4.46 6.45-.342837.1608149-.5557005.5116455-.54.89v7.6c0 1.6568542-1.3431458 3-3 3h-10c-1.6568542 0-3-1.3431458-3-3v-7.6c.0157005-.3783545-.197163-.7291851-.54-.89-2.60522283-1.111107-4.34023728-3.6202647-4.46-6.45-.2-3.45 2.51-6 5.29-6.81.5909162-.1510101 1.0806315-.563402 1.33-1.12 1.1321404-2.507824 3.628469-4.1197917 6.38-4.1197917s5.2478596 1.6119677 6.38 4.1197917c.2493685.556598.7390838.9689899 1.33 1.12 2.78.75 5.49 3.36 5.29 6.81z"/><path id="Shape" d="m40 2h-1v52h1c.5522847 0 1-.4477153 1-1v-50c0-.55228475-.4477153-1-1-1z"/><path id="Shape" d="m32 8c.5522847 0 1-.44771525 1-1v-7h-2v7c0 .55228475.4477153 1 1 1z"/></g></svg>